<svg width="72" height="72" viewBox="0 0 72 72" fill="none" xmlns="http://www.w3.org/2000/svg">
<g id="surface1">
<path id="Vector" d="M12.4263 0.25C10.3262 0.25 8.44092 1.41553 7.50635 3.29004L0.975098 16.3472C0.502442 17.2979 0.25 18.3613 0.25 19.4194V33.25C0.25 34.8989 0.996582 36.3652 2.15137 37.375C0.996582 38.3848 0.25 39.8511 0.25 41.5V49.75C0.25 51.3989 0.996582 52.8652 2.15137 53.875C0.996582 54.8848 0.25 56.3511 0.25 58V66.25C0.25 69.2847 2.71533 71.75 5.75 71.75H66.25C69.2847 71.75 71.75 69.2847 71.75 66.25V58C71.75 56.3511 71.0034 54.8848 69.8486 53.875C71.0034 52.8652 71.75 51.3989 71.75 49.75V41.5C71.75 39.8511 71.0034 38.3848 69.8486 37.375C71.0034 36.3652 71.75 34.8989 71.75 33.25V19.4194C71.75 18.3613 71.4976 17.2979 71.0249 16.3472L64.4937 3.29004C63.5591 1.41553 61.6738 0.25 59.5737 0.25H12.4263ZM12.4263 3H59.5737C60.6211 3 61.5664 3.58545 62.0337 4.52002L68.5649 17.5771C68.8496 18.1465 69 18.7856 69 19.4194V19.5H3V19.4194C3 18.7856 3.15039 18.1465 3.43506 17.5771L9.96094 4.52002C10.4336 3.58545 11.3735 3 12.4263 3ZM12.625 5.75C11.8623 5.75 11.25 6.36231 11.25 7.125C11.25 7.8877 11.8623 8.5 12.625 8.5H48.375C49.1377 8.5 49.75 7.8877 49.75 7.125C49.75 6.36231 49.1377 5.75 48.375 5.75H12.625ZM53.875 5.75C53.1123 5.75 52.5 6.36231 52.5 7.125C52.5 7.8877 53.1123 8.5 53.875 8.5H59.375C60.1377 8.5 60.75 7.8877 60.75 7.125C60.75 6.36231 60.1377 5.75 59.375 5.75H53.875ZM3 22.25H69V33.25C69 34.7646 67.7646 36 66.25 36H5.75C4.23535 36 3 34.7646 3 33.25V22.25ZM59.375 25C57.103 25 55.25 26.853 55.25 29.125C55.25 31.397 57.103 33.25 59.375 33.25C61.647 33.25 63.5 31.397 63.5 29.125C63.5 26.853 61.647 25 59.375 25ZM9.875 26.375C9.11231 26.375 8.5 26.9873 8.5 27.75V30.5C8.5 31.2627 9.11231 31.875 9.875 31.875C10.6377 31.875 11.25 31.2627 11.25 30.5V27.75C11.25 26.9873 10.6377 26.375 9.875 26.375ZM16.75 26.375C15.9873 26.375 15.375 26.9873 15.375 27.75V30.5C15.375 31.2627 15.9873 31.875 16.75 31.875C17.5127 31.875 18.125 31.2627 18.125 30.5V27.75C18.125 26.9873 17.5127 26.375 16.75 26.375ZM23.625 26.375C22.8623 26.375 22.25 26.9873 22.25 27.75V30.5C22.25 31.2627 22.8623 31.875 23.625 31.875C24.3877 31.875 25 31.2627 25 30.5V27.75C25 26.9873 24.3877 26.375 23.625 26.375ZM30.5 26.375C29.7373 26.375 29.125 26.9873 29.125 27.75V30.5C29.125 31.2627 29.7373 31.875 30.5 31.875C31.2627 31.875 31.875 31.2627 31.875 30.5V27.75C31.875 26.9873 31.2627 26.375 30.5 26.375ZM37.375 26.375C36.6123 26.375 36 26.9873 36 27.75V30.5C36 31.2627 36.6123 31.875 37.375 31.875C38.1377 31.875 38.75 31.2627 38.75 30.5V27.75C38.75 26.9873 38.1377 26.375 37.375 26.375ZM59.375 27.4653C60.2935 27.4653 61.0347 28.2119 61.0347 29.125C61.0347 30.0435 60.2881 30.7847 59.375 30.7847C58.4619 30.7847 57.7153 30.0435 57.7153 29.125C57.7153 28.2065 58.4565 27.4653 59.375 27.4653ZM42.875 27.75C42.1123 27.75 41.5 28.3623 41.5 29.125C41.5 29.8877 42.1123 30.5 42.875 30.5H51.125C51.8877 30.5 52.5 29.8877 52.5 29.125C52.5 28.3623 51.8877 27.75 51.125 27.75H42.875ZM5.75 38.75H66.25C67.7646 38.75 69 39.9854 69 41.5V49.75C69 51.2646 67.7646 52.5 66.25 52.5H5.75C4.23535 52.5 3 51.2646 3 49.75V41.5C3 39.9854 4.23535 38.75 5.75 38.75ZM59.375 41.5C57.103 41.5 55.25 43.353 55.25 45.625C55.25 47.897 57.103 49.75 59.375 49.75C61.647 49.75 63.5 47.897 63.5 45.625C63.5 43.353 61.647 41.5 59.375 41.5ZM9.875 42.875C9.11231 42.875 8.5 43.4873 8.5 44.25V47C8.5 47.7627 9.11231 48.375 9.875 48.375C10.6377 48.375 11.25 47.7627 11.25 47V44.25C11.25 43.4873 10.6377 42.875 9.875 42.875ZM16.75 42.875C15.9873 42.875 15.375 43.4873 15.375 44.25V47C15.375 47.7627 15.9873 48.375 16.75 48.375C17.5127 48.375 18.125 47.7627 18.125 47V44.25C18.125 43.4873 17.5127 42.875 16.75 42.875ZM23.625 42.875C22.8623 42.875 22.25 43.4873 22.25 44.25V47C22.25 47.7627 22.8623 48.375 23.625 48.375C24.3877 48.375 25 47.7627 25 47V44.25C25 43.4873 24.3877 42.875 23.625 42.875ZM30.5 42.875C29.7373 42.875 29.125 43.4873 29.125 44.25V47C29.125 47.7627 29.7373 48.375 30.5 48.375C31.2627 48.375 31.875 47.7627 31.875 47V44.25C31.875 43.4873 31.2627 42.875 30.5 42.875ZM37.375 42.875C36.6123 42.875 36 43.4873 36 44.25V47C36 47.7627 36.6123 48.375 37.375 48.375C38.1377 48.375 38.75 47.7627 38.75 47V44.25C38.75 43.4873 38.1377 42.875 37.375 42.875ZM59.375 43.9653C60.2881 43.9653 61.0347 44.7119 61.0347 45.625C61.0347 46.5435 60.2935 47.2847 59.375 47.2847C58.4565 47.2847 57.7153 46.5381 57.7153 45.625C57.7153 44.7065 58.4619 43.9653 59.375 43.9653ZM42.875 44.25C42.1123 44.25 41.5 44.8623 41.5 45.625C41.5 46.3877 42.1123 47 42.875 47H51.125C51.8877 47 52.5 46.3877 52.5 45.625C52.5 44.8623 51.8877 44.25 51.125 44.25H42.875ZM5.75 55.25H66.25C67.7646 55.25 69 56.4854 69 58V66.25C69 67.7646 67.7646 69 66.25 69H5.75C4.23535 69 3 67.7646 3 66.25V58C3 56.4854 4.23535 55.25 5.75 55.25ZM59.375 58C57.103 58 55.25 59.853 55.25 62.125C55.25 64.397 57.103 66.25 59.375 66.25C61.647 66.25 63.5 64.397 63.5 62.125C63.5 59.853 61.647 58 59.375 58ZM9.875 59.375C9.11231 59.375 8.5 59.9873 8.5 60.75V63.5C8.5 64.2627 9.11231 64.875 9.875 64.875C10.6377 64.875 11.25 64.2627 11.25 63.5V60.75C11.25 59.9873 10.6377 59.375 9.875 59.375ZM16.75 59.375C15.9873 59.375 15.375 59.9873 15.375 60.75V63.5C15.375 64.2627 15.9873 64.875 16.75 64.875C17.5127 64.875 18.125 64.2627 18.125 63.5V60.75C18.125 59.9873 17.5127 59.375 16.75 59.375ZM23.625 59.375C22.8623 59.375 22.25 59.9873 22.25 60.75V63.5C22.25 64.2627 22.8623 64.875 23.625 64.875C24.3877 64.875 25 64.2627 25 63.5V60.75C25 59.9873 24.3877 59.375 23.625 59.375ZM30.5 59.375C29.7373 59.375 29.125 59.9873 29.125 60.75V63.5C29.125 64.2627 29.7373 64.875 30.5 64.875C31.2627 64.875 31.875 64.2627 31.875 63.5V60.75C31.875 59.9873 31.2627 59.375 30.5 59.375ZM37.375 59.375C36.6123 59.375 36 59.9873 36 60.75V63.5C36 64.2627 36.6123 64.875 37.375 64.875C38.1377 64.875 38.75 64.2627 38.75 63.5V60.75C38.75 59.9873 38.1377 59.375 37.375 59.375ZM59.375 60.4062C60.3257 60.4062 61.0938 61.1743 61.0938 62.125C61.0938 63.0757 60.3257 63.8438 59.375 63.8438C58.4243 63.8438 57.6562 63.0757 57.6562 62.125C57.6562 61.1743 58.4243 60.4062 59.375 60.4062ZM42.875 60.75C42.1123 60.75 41.5 61.3623 41.5 62.125C41.5 62.8877 42.1123 63.5 42.875 63.5H51.125C51.8877 63.5 52.5 62.8877 52.5 62.125C52.5 61.3623 51.8877 60.75 51.125 60.75H42.875Z" fill="#333333"/>
</g>
</svg>
