<svg width="89" height="89" viewBox="0 0 89 89" fill="none" xmlns="http://www.w3.org/2000/svg">
<g id="icons8_shield">
<g id="surface1">
<path id="Vector" d="M44.5 8.76962L44.0003 9.01733C44.0003 9.01733 30.8719 15.575 13.35 15.575H12.2375V16.6875C12.2375 42.501 20.125 58.1064 28.0907 67.202C36.052 76.3019 44.1567 78.9353 44.1567 78.9353L44.5 79.044L44.8434 78.9353C44.8434 78.9353 52.9481 76.3019 60.9094 67.202C68.8751 58.1064 76.7626 42.501 76.7626 16.6875V15.575H75.6501C58.1282 15.575 44.9998 9.01733 44.9998 9.01733L44.5 8.76962ZM44.5 11.2293C45.7777 11.8464 57.9413 17.4784 74.4984 17.7478C74.2768 42.4401 66.7414 57.1677 59.2407 65.7418C51.9008 74.1247 45.0128 76.48 44.5 76.6539C43.9873 76.48 37.0993 74.1247 29.7594 65.7418C22.2587 57.1677 14.7233 42.4401 14.5017 17.7478C31.0588 17.4784 43.2224 11.8464 44.5 11.2293ZM42.4141 16.97L42.0273 17.0395L41.923 17.083L41.2451 17.813L41.4276 18.7908L42.3229 19.2384L42.7096 19.1645L42.8139 19.1254L43.4875 18.391L43.305 17.4132L42.4141 16.97ZM46.951 17.0525L45.9602 17.1699L45.4605 18.0347L45.8559 18.9473L46.1949 19.1428L46.2992 19.1819L47.29 19.0646L47.7854 18.1998L47.3943 17.2829L47.0553 17.0873L46.951 17.0525ZM38.1727 18.4432L37.7859 18.491L37.6816 18.5214L36.9559 19.208L37.0732 20.1988L37.9337 20.6986L38.3248 20.6508L38.4334 20.6204L39.1548 19.9337L39.0375 18.9429L38.1727 18.4432ZM51.2011 18.491L50.219 18.6691L49.7757 19.56L50.2233 20.4509L50.571 20.6247L50.6796 20.6551L51.6618 20.4769L52.1094 19.5904L51.6618 18.6996L51.3098 18.5214L51.2011 18.491ZM33.8618 19.6817L33.4663 19.6991L33.3577 19.7295L32.5928 20.3683L32.645 21.3635L33.4793 21.9154L33.8661 21.8936L33.9791 21.8676L34.7439 21.2288L34.6875 20.2336L33.8618 19.6817ZM55.5555 19.6991L54.5821 19.9077L54.1649 20.8159L54.6429 21.6894L54.9993 21.8502L55.1079 21.8806L56.0814 21.672L56.4942 20.7638L56.0205 19.8903L55.6598 19.7295L55.5555 19.6991ZM29.4465 20.6682L29.0598 20.6769L28.9468 20.6986L28.1602 21.3113L28.1776 22.3065L28.9902 22.8888L29.3813 22.8801L29.4943 22.8584L30.2809 22.25L30.2592 21.2505L29.4465 20.6682ZM59.9186 20.6812L58.9626 20.9637L58.6149 21.898L59.1538 22.7367L59.5231 22.8714L59.6361 22.8932L60.5922 22.6107L60.9355 21.6764L60.3923 20.8376L60.0272 20.7029L59.9186 20.6812ZM64.3643 21.42L63.4212 21.7459L63.117 22.6933L63.6907 23.5059L64.0644 23.6232L64.1774 23.6406L65.1161 23.319L65.4246 22.3717L64.8466 21.5547L64.4729 21.4373L64.3643 21.42ZM24.6098 21.4417L24.4968 21.4591L23.6928 22.0414L23.6711 23.0366L24.4577 23.6493L24.8531 23.658L24.9618 23.6406L25.7701 23.054L25.7875 22.0588L25.0009 21.4504L24.6098 21.4417ZM20.2684 21.9501C20.2423 21.9458 20.2163 21.9501 20.1945 21.9501C20.1293 21.9545 20.112 21.9545 20.138 21.9545L19.0907 22.0197V23.1148C19.082 23.5754 19.3602 23.9926 19.7904 24.1621C20.2163 24.3316 20.7073 24.2229 21.0202 23.884C21.3592 23.5754 21.4765 23.0887 21.3114 22.6585C21.1419 22.2283 20.7291 21.9458 20.2684 21.9501ZM68.6969 21.9501C68.2363 21.9588 67.8278 22.2587 67.6757 22.6933C67.5236 23.1322 67.6583 23.6145 68.0147 23.9144C68.0147 23.9144 68.0147 23.9144 68.019 23.9187C68.3362 24.236 68.8186 24.3272 69.2358 24.1491C69.6486 23.9709 69.9181 23.5624 69.9137 23.1104V22.0197L68.8664 21.9545C68.8925 21.9545 68.8708 21.9545 68.8056 21.9501C68.7708 21.9458 68.736 21.9458 68.6969 21.9501ZM68.4231 26.5566L67.6409 27.1737L67.541 27.5561L67.5323 27.6691L67.9017 28.5947L68.8664 28.8511L69.6486 28.2297L69.7486 27.8516L69.7573 27.7386L69.3879 26.813L68.4231 26.5566ZM19.9729 26.6478L19.2776 27.3605L19.2254 27.743V27.8255L19.2298 27.8951L19.7426 28.7512L20.7334 28.8555L21.4113 28.121L21.4504 27.7299V27.6952L21.4461 27.6604V27.6517L20.9637 26.7826L19.9729 26.6478ZM68.0233 31.1717L67.202 31.7367L67.076 32.1061L67.0586 32.219L67.3715 33.1664L68.3145 33.488L69.1315 32.923L69.2575 32.5537L69.2749 32.4363L68.9707 31.4933L68.0233 31.1717ZM20.2945 31.3412L19.6644 32.1147L19.647 32.5059L19.66 32.6188L20.2206 33.4445L21.2201 33.4836L21.8502 32.7144L21.8676 32.3233L21.8502 32.2103L21.2896 31.3847L20.2945 31.3412ZM67.2889 35.7391L66.4328 36.2519L66.2807 36.6125L66.259 36.7255L66.5023 37.6903L67.4236 38.0727L68.2797 37.5643L68.4318 37.1992L68.4536 37.0906L68.2102 36.1215L67.2889 35.7391ZM21.9545 35.9737L20.9594 35.9955L20.3771 36.7994L20.3857 37.1949L20.4075 37.3035L21.0159 38.0944L22.0154 38.0727L22.5977 37.2644L22.589 36.8733L22.5673 36.7603L21.9545 35.9737ZM66.2112 40.2412L65.3203 40.6932L65.1465 41.0452L65.1161 41.1581L65.2942 42.1359L66.1895 42.5792L67.0803 42.1272L67.2542 41.7752L67.2846 41.6666L67.1021 40.6888L66.2112 40.2412ZM22.9454 40.5019L21.9545 40.5845L21.4244 41.4276L21.4548 41.8187L21.4852 41.9273L22.1458 42.6748L23.1409 42.5922L23.6711 41.7492L23.6363 41.3581L23.6059 41.2494L22.9454 40.5019ZM64.8075 44.6478L63.8819 45.0084L63.6733 45.3431L63.6342 45.4474L63.7124 46.4425L64.5598 46.9684L65.4898 46.6033L65.6984 46.273L65.7418 46.1687L65.6549 45.1736L64.8075 44.6478ZM24.2621 44.9215L23.28 45.0997L22.8367 45.9949L22.9063 46.3773L22.9454 46.486L23.6754 47.1639L24.6576 46.9857L25.1008 46.0949L25.0313 45.7124L24.9922 45.5995L24.2621 44.9215ZM62.9954 48.9152L62.0523 49.2281L61.8264 49.5541L61.7786 49.6583L61.8177 50.6535L62.6347 51.2185L63.582 50.9012L63.8037 50.5796L63.8515 50.4753L63.8124 49.4758L62.9954 48.9152ZM25.9874 49.2107L25.027 49.4671L24.6532 50.3928L24.7532 50.7708L24.8053 50.8751L25.5875 51.4922L26.5479 51.2358L26.9217 50.3102L26.8217 49.9321L26.7696 49.8322L25.9874 49.2107ZM60.8964 53.0176L59.9186 53.2218L59.6579 53.513L59.6014 53.6086L59.5188 54.6038L60.2619 55.2643L61.2397 55.0644L61.5004 54.7689L61.5569 54.6733L61.6395 53.6781L60.8964 53.0176ZM28.0211 53.3348L27.0955 53.7129L26.8391 54.6733L26.9912 55.0383L27.0477 55.1339L27.9038 55.6467L28.8251 55.2773L29.0815 54.3083L28.9294 53.9476L28.8729 53.852L28.0211 53.3348ZM58.4063 56.9244L57.4198 57.0678L57.146 57.3459L57.0809 57.4415L56.9418 58.428L57.6458 59.132L58.6323 58.9842L58.9104 58.7061L58.9756 58.6148L59.1147 57.6284L58.4063 56.9244ZM30.5417 57.2242L29.6421 57.6544L29.4465 58.6322L29.616 58.9842L29.6855 59.0798L30.5634 59.5405L31.4629 59.1146L31.6585 58.1325L31.489 57.7805L31.4238 57.6892L30.5417 57.2242ZM55.6251 60.6095L54.6299 60.6486L54.3257 60.892L54.2518 60.9789L54.0084 61.9436L54.6342 62.7172L55.6294 62.6824L55.9336 62.4347L56.0075 62.3478L56.2508 61.3787L55.6251 60.6095ZM33.3707 60.8485L32.5276 61.3787L32.4494 62.3739L32.658 62.7041L32.7319 62.7911L33.6662 63.1474L34.5049 62.6172L34.5875 61.6221L34.3789 61.2918L34.3007 61.2049L33.3707 60.8485ZM51.5271 63.9687L51.1968 64.1817L51.1186 64.2599L50.7752 65.1986L51.3228 66.0286L52.318 66.0895L52.6482 65.8765L52.7265 65.7983L53.0698 64.8596L52.5222 64.0252L51.5271 63.9687ZM36.5735 64.16L35.7913 64.7727L35.8217 65.7722L36.0607 66.0764L36.1476 66.1546L37.1124 66.411L37.8946 65.7939L37.8685 64.7988L37.6251 64.4902L37.5426 64.4164L36.5735 64.16ZM48.107 66.9629L47.7593 67.1455L47.6681 67.215L47.2422 68.1145L47.7028 68.9967L48.6893 69.1532L49.037 68.975L49.1239 68.9055L49.5541 68.0016L49.0891 67.1194L48.107 66.9629ZM40.1326 67.0933L39.4112 67.7799L39.5329 68.7707L39.8023 69.0576L39.8936 69.1228L40.8801 69.2879L41.5971 68.5969L41.4798 67.6104L41.2104 67.3236L41.1147 67.2584L40.1326 67.0933ZM44.4131 69.4704C43.896 69.4791 43.4571 69.8441 43.3484 70.3439C43.2398 70.848 43.4875 71.3608 43.9481 71.5824C43.9481 71.5824 43.9612 71.5911 43.9959 71.6085L44.4957 71.8562L45.0389 71.5824C45.5083 71.3564 45.756 70.8306 45.6299 70.3222C45.5083 69.8137 45.0433 69.4574 44.5218 69.4748C44.5174 69.4704 44.5174 69.4704 44.5131 69.4748C44.4783 69.4704 44.4436 69.4704 44.4131 69.4704Z" fill="#5B5B5B"/>
</g>
</g>
</svg>
