<svg width="86" height="86" viewBox="0 0 86 86" fill="none" xmlns="http://www.w3.org/2000/svg">
<g id="icons8_idea">
<g id="surface1">
<path id="Vector" d="M41.6562 5.375C27.5784 5.375 16.125 16.8284 16.125 30.9062C16.125 37.5883 19.8623 42.5801 23.4789 47.4092C26.3658 51.2672 29.0848 54.9415 29.5625 59.125V68.5312C29.5625 73.2606 33.0741 77.1764 37.625 77.8325V79.2812C37.625 80.7615 38.8323 81.9688 40.3125 81.9688H43C44.4802 81.9688 45.6875 80.7615 45.6875 79.2812V77.8325C50.2384 77.1764 53.75 73.2606 53.75 68.5312V60.3323C53.771 55.6344 56.7367 51.6399 59.8809 47.4092C63.4764 42.5801 67.1875 37.5883 67.1875 30.9062C67.1875 16.8284 55.7341 5.375 41.6562 5.375ZM41.6562 8.0625C54.2539 8.0625 64.5 18.3086 64.5 30.9062C64.5 36.7012 61.0566 41.3308 57.7288 45.8082C54.7158 49.8605 51.6084 54.0334 51.1255 59.041H43V55.0938C43 54.3536 42.3964 53.75 41.6562 53.75C40.9161 53.75 40.3125 54.3536 40.3125 55.0938V59.0463H32.2867C31.7986 54.0387 28.6649 49.8552 25.631 45.7977C22.2769 41.3203 18.8125 36.6959 18.8125 30.9062C18.8125 18.3086 29.0586 8.0625 41.6562 8.0625ZM41.4725 12.0885C37.8822 12.12 34.3759 13.175 31.3262 15.1802C30.7068 15.5844 30.5388 16.4189 30.9482 17.0383C31.2054 17.432 31.6306 17.642 32.0663 17.642C32.3235 17.642 32.5754 17.5737 32.8064 17.4215C36.2865 15.1329 40.47 14.2931 44.5905 15.049C45.3253 15.1802 46.0234 14.6973 46.1547 13.9677C46.2911 13.238 45.8082 12.5399 45.0786 12.4087C43.8766 12.183 42.6746 12.078 41.4725 12.0885ZM50.8735 14.6133C50.3591 14.5398 49.8185 14.776 49.5298 15.2484C49.1466 15.8888 49.3513 16.7129 49.9917 17.0961C51.0992 17.7679 52.1333 18.5763 53.0571 19.5054C53.3196 19.7678 53.666 19.899 54.0072 19.899C54.3536 19.899 54.7001 19.7678 54.9625 19.5054C55.4874 18.9805 55.4874 18.1301 54.9625 17.6052C53.876 16.5239 52.674 15.5791 51.3774 14.797C51.22 14.7025 51.0468 14.6395 50.8735 14.6133ZM6.75024 15.4689C6.22534 15.4794 5.73193 15.7943 5.52197 16.3087C5.24902 16.9963 5.57971 17.7837 6.26733 18.0566L11.2539 20.0723C11.4166 20.1405 11.5846 20.172 11.7526 20.172C12.2827 20.172 12.7919 19.8518 13.0018 19.3322C13.28 18.6393 12.9441 17.8572 12.2565 17.579L7.27515 15.5634C7.10193 15.4951 6.92346 15.4636 6.75024 15.4689ZM76.5623 15.4689C76.389 15.4636 76.2106 15.4951 76.0374 15.5634L71.056 17.579C70.3684 17.8572 70.0325 18.6393 70.3107 19.3322C70.5206 19.8518 71.0298 20.172 71.5599 20.172C71.7279 20.172 71.8959 20.1405 72.0586 20.0723L77.0452 18.0566C77.7328 17.7837 78.0635 16.9963 77.7905 16.3087C77.5806 15.7943 77.0872 15.4794 76.5623 15.4689ZM1.34375 29.5625C0.603638 29.5625 0 30.1661 0 30.9062C0 31.6464 0.603638 32.25 1.34375 32.25H9.40625C10.1464 32.25 10.75 31.6464 10.75 30.9062C10.75 30.1661 10.1464 29.5625 9.40625 29.5625H1.34375ZM73.9062 29.5625C73.1661 29.5625 72.5625 30.1661 72.5625 30.9062C72.5625 31.6464 73.1661 32.25 73.9062 32.25H81.9688C82.7089 32.25 83.3125 31.6464 83.3125 30.9062C83.3125 30.1661 82.7089 29.5625 81.9688 29.5625H73.9062ZM36.2812 34.9375C35.9401 34.9375 35.5936 35.0687 35.3312 35.3312C34.8063 35.8561 34.8063 36.7064 35.3312 37.2313L38.0187 39.9188C38.2811 40.1813 38.6223 40.3125 38.9688 40.3125C39.3152 40.3125 39.6564 40.1813 39.9188 39.9188C40.4437 39.3939 40.4437 38.5436 39.9188 38.0187L37.2313 35.3312C36.9689 35.0687 36.6224 34.9375 36.2812 34.9375ZM47.0312 34.9375C46.6901 34.9375 46.3436 35.0687 46.0812 35.3312L40.7062 40.7062C40.4542 40.9581 40.3125 41.2993 40.3125 41.6562V49.7188C40.3125 50.4589 40.9161 51.0625 41.6562 51.0625C42.3964 51.0625 43 50.4589 43 49.7188V42.2126L47.9813 37.2313C48.5062 36.7064 48.5062 35.8561 47.9813 35.3312C47.7189 35.0687 47.3724 34.9375 47.0312 34.9375ZM11.7788 41.6405C11.6003 41.6405 11.4219 41.672 11.2539 41.7402L6.26733 43.7559C5.57971 44.0288 5.24902 44.8162 5.52197 45.5038C5.73718 46.0287 6.24109 46.3436 6.77124 46.3436C6.93921 46.3436 7.11243 46.3121 7.27515 46.2491L12.2565 44.2335C12.9441 43.9553 13.28 43.1732 13.0018 42.4803C12.7919 41.9659 12.2985 41.651 11.7788 41.6405ZM71.5337 41.6458C71.014 41.6562 70.5206 41.9712 70.3107 42.4856C70.0325 43.1732 70.3684 43.9606 71.056 44.2388L76.0374 46.2491C76.2001 46.3174 76.3733 46.3436 76.5413 46.3436C77.0714 46.3436 77.5753 46.0287 77.7905 45.5038C78.0635 44.8162 77.7328 44.0341 77.0452 43.7559L72.0586 41.7402C71.8906 41.672 71.7122 41.6405 71.5337 41.6458ZM32.25 61.8125H51.0625V63.3137L32.25 65.6653V61.8125ZM51.0625 66.0222V68.5312C51.0625 68.5837 51.0468 68.6362 51.0468 68.694L37.3993 70.3999C36.6644 70.4891 36.1448 71.161 36.2393 71.8959C36.3232 72.5782 36.9006 73.0717 37.5673 73.0717C37.625 73.0717 37.6775 73.0717 37.7352 73.0612L50.3486 71.4865C49.2516 73.7068 46.984 75.25 44.3438 75.25H38.9688C35.2629 75.25 32.25 72.2371 32.25 68.5312V68.3738L51.0625 66.0222ZM40.3125 77.9375H43V79.2812H40.3125V77.9375Z" fill="#5B5B5B"/>
</g>
</g>
</svg>
