<svg width="80" height="80" viewBox="0 0 80 80" fill="none" xmlns="http://www.w3.org/2000/svg">
<g id="icons8_beijing_1">
<g id="surface1">
<path id="Vector" d="M30.1313 4.73749C29.2625 4.75624 28.5563 5.47499 28.5688 6.34999V12.1125C28.2438 12.5375 27.2875 13.6875 25.475 14.7687C23.3 16.0625 20.4063 16.9375 16.5188 15.2187C15.975 14.975 15.3438 15.0562 14.8813 15.425C14.425 15.7937 14.2 16.3875 14.3125 16.9687C14.3125 16.9687 14.7313 19.1187 16.325 21.2062C17.2813 22.45 18.7313 23.7 20.7063 24.5062V32.2687C19.0563 32.9625 14.3813 34.5562 10.3813 31.9937C9.83755 31.65 9.13755 31.6625 8.61255 32.0375C8.08755 32.4062 7.83755 33.0562 7.97505 33.6812C7.97505 33.6812 8.5688 36.3437 10.4188 39.0062C11.6063 40.7062 13.4125 42.4562 15.875 43.4937V50.7937H4.76255C3.88755 50.7937 3.17505 51.5062 3.17505 52.3812V71.4312C3.17505 72.3 3.88755 73.0187 4.76255 73.0187H15.6063C15.7813 73.0437 15.9563 73.0437 16.1188 73.0187H23.5438C23.7188 73.0437 23.8875 73.0437 24.0563 73.0187H55.2875C55.4625 73.0437 55.6375 73.0437 55.8063 73.0187H63.225C63.4 73.0437 63.575 73.0437 63.7375 73.0187H74.6063C75.475 73.0187 76.1875 72.3 76.1875 71.4312V52.3812C76.1875 51.5062 75.475 50.7937 74.6063 50.7937H63.4938V43.4937C65.9563 42.4562 67.7563 40.7062 68.95 39.0062C70.7938 36.3437 71.3875 33.6812 71.3875 33.6812C71.525 33.0562 71.2813 32.4062 70.75 32.0375C70.225 31.6625 69.525 31.65 68.9875 31.9937C64.9875 34.5562 60.3125 32.9625 58.6625 32.2687V24.5062C60.6313 23.7 62.0875 22.45 63.0375 21.2062C64.6313 19.1187 65.0563 16.9687 65.0563 16.9687C65.1688 16.3875 64.9438 15.7937 64.4813 15.425C64.0188 15.0562 63.3938 14.975 62.85 15.2187C58.9625 16.9375 56.0625 16.0625 53.8875 14.7687C52.075 13.6875 51.125 12.5375 50.7938 12.1125V6.34999C50.8 5.91874 50.6313 5.50624 50.3313 5.19999C50.025 4.89999 49.6063 4.73124 49.1813 4.73749C48.3063 4.75624 47.6063 5.47499 47.6188 6.34999V7.93749H31.7438V6.34999C31.75 5.91874 31.5875 5.50624 31.2813 5.19999C30.975 4.89999 30.5625 4.73124 30.1313 4.73749ZM31.7438 11.1125H47.6188V17.4625C47.6125 18.0312 47.9125 18.5625 48.4063 18.8562C48.9 19.1437 49.5125 19.1437 50.0063 18.8562C50.5 18.5625 50.8 18.0312 50.7938 17.4625V16.4875C51.2375 16.8312 51.725 17.175 52.2625 17.5C54.3375 18.7312 57.2375 19.6562 60.5688 19.1562C60.5375 19.2125 60.5625 19.2125 60.5188 19.2687C59.3875 20.7562 57.5688 22.225 53.9688 22.225H25.3938C21.7938 22.225 19.975 20.7562 18.85 19.2687C18.8 19.2125 18.8313 19.2125 18.7938 19.1562C22.1313 19.6562 25.025 18.7312 27.1 17.5C27.6438 17.175 28.125 16.8312 28.5688 16.4875V17.4625C28.5625 18.0312 28.8625 18.5625 29.3563 18.8562C29.8563 19.1437 30.4625 19.1437 30.9563 18.8562C31.4563 18.5625 31.75 18.0312 31.7438 17.4625V12.8875C31.7625 12.7562 31.7625 12.625 31.7438 12.4937V11.1125ZM23.875 25.3062C24.3625 25.3625 24.8688 25.3937 25.3938 25.3937H53.9688C54.4938 25.3937 55.0063 25.3625 55.4875 25.3062V31.7437H23.875V25.3062ZM22.5375 34.9187H56.825C57.8625 35.3937 62.1 37.1187 66.8688 36.0437C66.6125 36.575 66.7438 36.6125 66.3438 37.1812C64.875 39.2937 62.6438 41.2687 58.7313 41.2687H20.6375C16.725 41.2687 14.4875 39.2937 13.0188 37.1812C12.625 36.6125 12.7563 36.575 12.4875 36.0437C17.2688 37.1187 21.5 35.3937 22.5375 34.9187ZM19.05 44.3375C19.5563 44.4 20.0813 44.4437 20.6375 44.4437H58.7313C59.2813 44.4437 59.8063 44.4 60.3188 44.3375V50.7937H19.05V44.3375ZM6.35005 53.9687H73.0188V69.8437H65.0813V62.7C65.0813 59.65 62.575 57.1437 59.525 57.1437C56.475 57.1437 53.9688 59.65 53.9688 62.7V69.8437H25.3938V62.7C25.3938 59.65 22.8938 57.1437 19.8438 57.1437C16.7938 57.1437 14.2875 59.65 14.2875 62.7V69.8437H6.35005V53.9687ZM19.8438 60.3187C21.175 60.3187 22.225 61.3625 22.225 62.7V69.8437H17.4625V62.7C17.4625 61.3625 18.5063 60.3187 19.8438 60.3187ZM59.525 60.3187C60.8563 60.3187 61.9063 61.3625 61.9063 62.7V69.8437H57.1438V62.7C57.1438 61.3625 58.1938 60.3187 59.525 60.3187Z" fill="#5B5B5B"/>
</g>
</g>
</svg>
