<svg width="64" height="64" viewBox="0 0 64 64" fill="none" xmlns="http://www.w3.org/2000/svg">
<g id="icons8_change_theme">
<g id="surface1">
<path id="Vector" d="M5 2C3.35156 2 2 3.35156 2 5V37C2 38.6484 3.35156 40 5 40H18V59C18 60.6484 19.3516 62 21 62H59C60.6484 62 62 60.6484 62 59V27C62 25.3516 60.6484 24 59 24H46V5C46 3.35156 44.6484 2 43 2H5ZM5 4H43C43.5508 4 44 4.44922 44 5V24H40V19C40 18.4453 39.5547 18 39 18H27C26.4453 18 26 18.4453 26 19V24H22V19C22 18.4453 21.5547 18 21 18H9C8.44531 18 8 18.4453 8 19V33C8 33.5547 8.44531 34 9 34H18V38H5C4.44922 38 4 37.5508 4 37V14H33C33.5547 14 34 13.5547 34 13C34 12.4453 33.5547 12 33 12H4V5C4 4.44922 4.44922 4 5 4ZM6 6C5.44531 6 5 6.44531 5 7V9C5 9.55469 5.44531 10 6 10C6.55469 10 7 9.55469 7 9V7C7 6.44531 6.55469 6 6 6ZM11 6C10.4453 6 10 6.44531 10 7V9C10 9.55469 10.4453 10 11 10C11.5547 10 12 9.55469 12 9V7C12 6.44531 11.5547 6 11 6ZM16 6C15.4453 6 15 6.44531 15 7V9C15 9.55469 15.4453 10 16 10C16.5547 10 17 9.55469 17 9V7C17 6.44531 16.5547 6 16 6ZM21 6C20.4453 6 20 6.44531 20 7V9C20 9.55469 20.4453 10 21 10C21.5547 10 22 9.55469 22 9V7C22 6.44531 21.5547 6 21 6ZM26 6C25.4453 6 25 6.44531 25 7V9C25 9.55469 25.4453 10 26 10C26.5547 10 27 9.55469 27 9V7C27 6.44531 26.5547 6 26 6ZM31 6C30.4453 6 30 6.44531 30 7V9C30 9.55469 30.4453 10 31 10C31.5547 10 32 9.55469 32 9V7C32 6.44531 31.5547 6 31 6ZM36 6C35.4453 6 35 6.44531 35 7V9C35 9.55469 35.4453 10 36 10C36.5547 10 37 9.55469 37 9V7C37 6.44531 36.5547 6 36 6ZM41 6C40.4453 6 40 6.44531 40 7V9C40 9.55469 40.4453 10 41 10C41.5547 10 42 9.55469 42 9V7C42 6.44531 41.5547 6 41 6ZM37 12C36.4453 12 36 12.4453 36 13C36 13.5547 36.4453 14 37 14H41C41.5547 14 42 13.5547 42 13C42 12.4453 41.5547 12 41 12H37ZM10 20H20V24.1875C18.8398 24.6016 18 25.7031 18 27V32H10V20ZM28 20H38V24H28V20ZM21 26H59C59.5508 26 60 26.4492 60 27V59C60 59.5508 59.5508 60 59 60H21C20.4492 60 20 59.5508 20 59V36H49C49.5547 36 50 35.5547 50 35C50 34.4453 49.5547 34 49 34H20V27C20 26.4492 20.4492 26 21 26ZM22 28C21.4453 28 21 28.4453 21 29V31C21 31.5547 21.4453 32 22 32C22.5547 32 23 31.5547 23 31V29C23 28.4453 22.5547 28 22 28ZM27 28C26.4453 28 26 28.4453 26 29V31C26 31.5547 26.4453 32 27 32C27.5547 32 28 31.5547 28 31V29C28 28.4453 27.5547 28 27 28ZM32 28C31.4453 28 31 28.4453 31 29V31C31 31.5547 31.4453 32 32 32C32.5547 32 33 31.5547 33 31V29C33 28.4453 32.5547 28 32 28ZM37 28C36.4453 28 36 28.4453 36 29V31C36 31.5547 36.4453 32 37 32C37.5547 32 38 31.5547 38 31V29C38 28.4453 37.5547 28 37 28ZM42 28C41.4453 28 41 28.4453 41 29V31C41 31.5547 41.4453 32 42 32C42.5547 32 43 31.5547 43 31V29C43 28.4453 42.5547 28 42 28ZM47 28C46.4453 28 46 28.4453 46 29V31C46 31.5547 46.4453 32 47 32C47.5547 32 48 31.5547 48 31V29C48 28.4453 47.5547 28 47 28ZM52 28C51.4453 28 51 28.4453 51 29V31C51 31.5547 51.4453 32 52 32C52.5547 32 53 31.5547 53 31V29C53 28.4453 52.5547 28 52 28ZM57 28C56.4453 28 56 28.4453 56 29V31C56 31.5547 56.4453 32 57 32C57.5547 32 58 31.5547 58 31V29C58 28.4453 57.5547 28 57 28ZM53 34C52.4453 34 52 34.4453 52 35C52 35.5547 52.4453 36 53 36H57C57.5547 36 58 35.5547 58 35C58 34.4453 57.5547 34 57 34H53ZM25 40C24.4453 40 24 40.4453 24 41V55C24 55.5547 24.4453 56 25 56H37C37.5547 56 38 55.5547 38 55V41C38 40.4453 37.5547 40 37 40H25ZM43 40C42.4453 40 42 40.4453 42 41V55C42 55.5547 42.4453 56 43 56H55C55.5547 56 56 55.5547 56 55V41C56 40.4453 55.5547 40 55 40H43ZM26 42H36V54H26V42ZM44 42H54V54H44V42Z" fill="black"/>
</g>
</g>
</svg>
