<svg width="192" height="192" viewBox="0 0 192 192" fill="none" xmlns="http://www.w3.org/2000/svg">
<g clip-path="url(#clip0_2014_48)">
<circle cx="96.5" cy="96.5" r="61.5" fill="url(#paint0_linear_2014_48)"/>
<circle opacity="0.6" cx="96" cy="96" r="77" fill="url(#paint1_linear_2014_48)"/>
<circle opacity="0.4" cx="96" cy="96" r="96" fill="url(#paint2_linear_2014_48)"/>
<path d="M95.9937 54.5185C78.8555 54.5185 64.0791 64.9566 57.7896 79.8682C57.3097 80.9171 57.4486 82.1428 58.1306 83.0653C58.8378 83.9878 59.9745 84.4807 61.0985 84.329C62.2478 84.1774 63.2203 83.4192 63.6623 82.3577C68.9793 69.7586 81.4319 60.9128 95.9937 60.9128C104.582 60.9128 112.425 63.9709 118.537 69.0889C119.876 70.2262 121.884 70.0493 123.021 68.6971C124.157 67.345 123.981 65.3357 122.617 64.1984C115.43 58.1579 106.123 54.5185 95.9937 54.5185ZM95.9937 67.2944C92.6469 67.2944 89.4138 67.8631 86.4332 68.9246C84.7661 69.5059 83.8947 71.3509 84.4883 73.0063C85.0692 74.6618 86.9005 75.5337 88.555 74.9524C90.8914 74.131 93.3794 73.6761 95.9937 73.6761C108.371 73.6761 118.335 83.6466 118.335 96.0182C118.335 105.445 115.178 126.903 115.178 126.903C114.963 128.053 115.393 129.215 116.289 129.961C117.199 130.707 118.436 130.896 119.522 130.441C120.609 130.012 121.366 129.013 121.493 127.851C121.493 127.851 124.713 106.785 124.713 96.0182C124.713 80.1967 111.818 67.2944 95.9937 67.2944ZM129.512 74.3964C128.388 74.409 127.353 75.0282 126.797 76.0013C126.241 76.987 126.241 78.1748 126.797 79.1605C129.538 84.1647 131.091 89.9019 131.091 96.0182C131.091 99.5313 130.586 102.893 129.626 106.077C129.247 107.189 129.5 108.402 130.295 109.274C131.078 110.134 132.278 110.487 133.415 110.209C134.551 109.931 135.436 109.047 135.739 107.91C136.863 104.144 137.482 100.15 137.482 96.0182C137.482 88.8151 135.638 82.0038 132.392 76.1024C131.824 75.0282 130.712 74.3711 129.512 74.3964ZM75.7361 77.0881C74.8015 77.1386 73.93 77.6062 73.3617 78.3518C69.5476 83.2296 67.2869 89.3712 67.2869 96.0182C67.2869 111.044 64.7863 120.787 64.7863 120.787C64.4832 121.911 64.7863 123.112 65.6199 123.921C66.4408 124.742 67.6406 125.058 68.752 124.729C69.876 124.413 70.7222 123.491 70.9747 122.366C70.9747 122.366 73.6648 111.764 73.6648 96.0182C73.6648 90.8244 75.4203 86.0729 78.3882 82.2818C79.1713 81.2962 79.3102 79.944 78.7419 78.832C78.1609 77.7073 76.999 77.0375 75.7361 77.0881ZM95.9937 80.0577C87.2289 80.0577 80.0427 87.2482 80.0427 96.0182C80.0427 118.436 76.9611 130.138 76.9611 130.138C76.6201 131.263 76.9232 132.476 77.7441 133.31C78.5651 134.144 79.7775 134.46 80.8889 134.131C82.0255 133.815 82.8717 132.905 83.1369 131.755C83.1369 131.755 86.4332 119.03 86.4332 96.0182C86.4332 90.698 90.6767 86.452 95.9937 86.452C101.323 86.452 105.567 90.698 105.567 96.0182C105.567 99.8472 105.415 103.84 105.163 107.72C105.074 108.87 105.605 109.969 106.565 110.601C107.512 111.233 108.737 111.322 109.772 110.816C110.795 110.285 111.465 109.274 111.528 108.137C111.781 104.144 111.957 100.024 111.957 96.0182C111.957 87.2482 104.771 80.0577 95.9937 80.0577ZM57.6507 90.2052C56.0215 90.281 54.708 91.5826 54.6196 93.2128C54.5564 94.1353 54.5186 95.0704 54.5186 96.0182C54.5186 99.5186 54.9606 102.905 55.7689 106.153C56.0467 107.278 56.8929 108.162 57.9917 108.478C59.0904 108.807 60.2902 108.503 61.1111 107.695C61.9321 106.886 62.2604 105.698 61.9573 104.586C61.2753 101.844 60.9091 98.9752 60.9091 96.0182C60.9091 95.2221 60.9343 94.4259 60.9722 93.6424C61.048 92.7326 60.7449 91.8354 60.0882 91.1782C59.4567 90.5085 58.5726 90.1547 57.6507 90.2052ZM95.9558 92.7831C94.1877 92.821 92.7858 94.2617 92.8111 96.0182C92.8111 104.7 92.3312 111.865 91.725 117.514C91.586 118.664 92.0786 119.788 93.0005 120.483C93.9351 121.166 95.1475 121.305 96.1958 120.824C97.2567 120.357 97.9639 119.346 98.0776 118.196C98.7091 112.32 99.189 104.927 99.189 96.0182C99.2016 95.1589 98.8606 94.3248 98.2544 93.7183C97.6482 93.1117 96.8146 92.7705 95.9558 92.7831ZM107.032 119.119C105.403 119.119 104.013 120.357 103.849 121.987C103.117 128.381 102.422 132.703 102.422 132.703C102.144 134.447 103.331 136.09 105.062 136.368C106.805 136.646 108.446 135.458 108.724 133.727C108.724 133.727 109.444 129.241 110.189 122.72C110.303 121.81 110.038 120.888 109.419 120.205C108.825 119.523 107.954 119.119 107.032 119.119ZM92.8995 127.56C91.3713 127.56 90.0705 128.621 89.7674 130.113C89.2748 132.337 88.9717 133.322 88.9717 133.322C88.6181 134.409 88.8833 135.597 89.6537 136.444C90.4241 137.278 91.586 137.657 92.6974 137.404C93.8214 137.151 94.7181 136.317 95.0465 135.231C95.0465 135.231 95.4633 133.904 95.9937 131.477C96.2084 130.53 95.9811 129.531 95.3875 128.773C94.7813 128.015 93.872 127.56 92.8995 127.56Z" fill="white"/>
</g>
<defs>
<linearGradient id="paint0_linear_2014_48" x1="35" y1="35" x2="163.082" y2="40.5413" gradientUnits="userSpaceOnUse">
<stop stop-color="#FF961C"/>
<stop offset="1" stop-color="#EB5757"/>
</linearGradient>
<linearGradient id="paint1_linear_2014_48" x1="19" y1="19" x2="179.362" y2="25.9379" gradientUnits="userSpaceOnUse">
<stop stop-color="#FF961C"/>
<stop offset="1" stop-color="#EB5757"/>
</linearGradient>
<linearGradient id="paint2_linear_2014_48" x1="0" y1="0" x2="199.932" y2="8.64988" gradientUnits="userSpaceOnUse">
<stop stop-color="#FF961C"/>
<stop offset="1" stop-color="#EB5757"/>
</linearGradient>
<clipPath id="clip0_2014_48">
<rect width="192" height="192" fill="white"/>
</clipPath>
</defs>
</svg>
