<svg width="138" height="137" viewBox="0 0 138 137" fill="none" xmlns="http://www.w3.org/2000/svg">
<g clip-path="url(#clip0_2009_26)">
<path d="M42.5 40C38.9453 40 36 42.9453 36 46.5V92C36 95.5547 38.9453 98.5 42.5 98.5H94.5C98.0547 98.5 101 95.5547 101 92V46.5C101 42.9453 98.0547 40 94.5 40H42.5ZM49 53H88V62.75H94.5V92H84.75V82.25H78.25V88.75H58.75V82.25H52.25V92H42.5V62.75H49V53ZM52.25 66V72.5H65.25V66H52.25ZM71.75 66V72.5H84.75V66H71.75ZM62 75.75V82.25H75V75.75H62Z" fill="white"/>
<path d="M106.777 35.2715H113.914V38.3477H106.777V46.4336H103.508V38.3477H96.3711V35.2715H103.508V27.8008H106.777V35.2715Z" fill="white"/>
<path opacity="0.2" d="M136 37.2734V140H119.055V57.3828L93.9531 65.8906V51.8984L133.961 37.2734H136Z" fill="white"/>
</g>
<defs>
<clipPath id="clip0_2009_26">
<rect width="138" height="137" fill="white"/>
</clipPath>
</defs>
</svg>
