<svg width="117" height="117" viewBox="0 0 117 117" fill="none" xmlns="http://www.w3.org/2000/svg">
<path d="M31.3438 75H23.1406V40.875H31.3438V75ZM50.3047 65.7188L57.1016 40.875H66.2891L54.8047 75H45.8047L34.4141 40.875H43.5312L50.3047 65.7188ZM95.5859 47.2266H85.3438V75H77.1172V47.2266H67.0625V40.875H95.5859V47.2266Z" fill="url(#paint0_linear_0_155)"/>
<g opacity="0.25">
<path d="M58.5 29.25C28.0217 29.25 4.57031 56.1006 4.57031 56.1006L2.39941 58.5L4.57031 60.8994C4.57031 60.8994 25.9508 85.2792 54.3867 87.5215C55.7435 87.6929 57.1003 87.75 58.5 87.75C59.8997 87.75 61.2565 87.6929 62.6133 87.5215C91.0492 85.2792 112.43 60.8994 112.43 60.8994L114.601 58.5L112.43 56.1006C112.43 56.1006 88.9783 29.25 58.5 29.25ZM58.5 36.5625C66.5552 36.5625 73.9819 38.762 80.4375 41.7041C82.7655 45.5603 84.0938 50.0021 84.0938 54.8438C84.0938 68.0548 74.1819 78.9093 61.3564 80.3232C61.285 80.3375 61.1993 80.309 61.1279 80.3232C60.2567 80.3661 59.3855 80.4375 58.5 80.4375C57.5288 80.4375 56.5862 80.3804 55.6436 80.3232C42.8181 78.9093 32.9062 68.0548 32.9062 54.8438C32.9062 50.0735 34.1917 45.6317 36.4482 41.8184H36.334C42.8467 38.8191 50.3591 36.5625 58.5 36.5625ZM58.5 43.875C52.4443 43.875 47.5312 48.7881 47.5312 54.8438C47.5312 60.8994 52.4443 65.8125 58.5 65.8125C64.5557 65.8125 69.4688 60.8994 69.4688 54.8438C69.4688 48.7881 64.5557 43.875 58.5 43.875ZM26.5078 47.3027C25.9365 49.7593 25.5938 52.2301 25.5938 54.8438C25.5938 61.2565 27.4219 67.255 30.6211 72.3252C21.4091 66.9979 15.0106 60.6423 12.9111 58.5C14.6678 56.7004 19.5667 51.9302 26.5078 47.3027ZM90.4922 47.3027C97.4333 51.9302 102.332 56.7004 104.089 58.5C101.989 60.6423 95.5909 66.9979 86.3789 72.3252C89.5781 67.255 91.4062 61.2565 91.4062 54.8438C91.4062 52.2301 91.0635 49.7307 90.4922 47.3027Z" fill="url(#paint1_linear_0_155)"/>
</g>
<defs>
<linearGradient id="paint0_linear_0_155" x1="20" y1="31" x2="100.048" y2="35.7619" gradientUnits="userSpaceOnUse">
<stop stop-color="#FF961C"/>
<stop offset="1" stop-color="#EB5757"/>
</linearGradient>
<linearGradient id="paint1_linear_0_155" x1="2.39941" y1="29.25" x2="118.654" y2="38.8967" gradientUnits="userSpaceOnUse">
<stop stop-color="#FF961C"/>
<stop offset="1" stop-color="#EB5757"/>
</linearGradient>
</defs>
</svg>
