<svg width="138" height="137" viewBox="0 0 138 137" fill="none" xmlns="http://www.w3.org/2000/svg">
<g clip-path="url(#clip0_2009_26)">
<path opacity="0.2" d="M141.5 140H72.6641V128.258L106.766 91.0625C111.688 85.5781 115.18 81.0078 117.242 77.3516C119.352 73.6484 120.406 69.9453 120.406 66.2422C120.406 61.3672 119.023 57.4297 116.258 54.4297C113.539 51.4297 109.859 49.9297 105.219 49.9297C99.6875 49.9297 95.3984 51.6172 92.3516 54.9922C89.3047 58.3672 87.7812 62.9844 87.7812 68.8438H70.6953C70.6953 62.6094 72.1016 57.0078 74.9141 52.0391C77.7734 47.0234 81.8281 43.1328 87.0781 40.3672C92.375 37.6016 98.4688 36.2188 105.359 36.2188C115.297 36.2188 123.125 38.7266 128.844 43.7422C134.609 48.7109 137.492 55.6016 137.492 64.4141C137.492 69.5234 136.039 74.8906 133.133 80.5156C130.273 86.0938 125.562 92.4453 119 99.5703L93.9688 126.359H141.5V140Z" fill="white"/>
<path d="M69.5 35.5938C51.3561 35.5938 36.5938 50.3561 36.5938 68.5C36.5938 86.6439 51.3561 101.406 69.5 101.406C87.6439 101.406 102.406 86.6439 102.406 68.5C102.406 50.3561 87.6439 35.5938 69.5 35.5938ZM69.5 40.6562C84.905 40.6562 97.3438 53.095 97.3438 68.5C97.3438 83.905 84.905 96.3438 69.5 96.3438C54.095 96.3438 41.6562 83.905 41.6562 68.5C41.6562 53.095 54.095 40.6562 69.5 40.6562ZM87.2188 50.8604C87.1891 50.8604 87.1693 50.8604 87.1396 50.8604C77.0641 50.9493 67.0182 58.4047 61.9854 63.4375C56.9229 63.4375 49.3291 65.9688 46.7979 71.0312H59.4541L56.9229 76.0938L61.9062 81.1562L66.9688 78.625V91.2812C72.0312 88.75 74.5625 81.1562 74.5625 76.0938C79.5953 71.0609 87.0507 61.015 87.1396 50.9395L87.2188 50.8604ZM77.0938 58.375C78.4879 58.375 79.625 59.5121 79.625 60.9062C79.625 62.3004 78.4879 63.4375 77.0938 63.4375C75.6996 63.4375 74.5625 62.3004 74.5625 60.9062C74.5625 59.5121 75.6996 58.375 77.0938 58.375ZM55.8154 77.5967C55.8154 77.5967 51.801 79.149 51.801 86.2089L51.7812 86.2188H51.7911C58.851 86.2089 60.4033 82.1945 60.4033 82.1945L59.9287 81.7198C59.9287 81.7198 58.1193 83.203 54.8365 83.203H54.8168V83.1733C54.8168 79.8906 56.29 78.0713 56.29 78.0713L55.8154 77.5967Z" fill="white"/>
</g>
<defs>
<clipPath id="clip0_2009_26">
<rect width="138" height="137" fill="white"/>
</clipPath>
</defs>
</svg>
