<svg width="138" height="137" viewBox="0 0 138 137" fill="none" xmlns="http://www.w3.org/2000/svg">
<g clip-path="url(#clip0_2009_26)">
<path opacity="0.2" d="M92.4219 82.0078H102.828C108.078 81.9609 112.227 80.6016 115.273 77.9297C118.367 75.2578 119.914 71.3906 119.914 66.3281C119.914 61.4531 118.625 57.6797 116.047 55.0078C113.516 52.2891 109.625 50.9297 104.375 50.9297C99.7812 50.9297 96.0078 52.2656 93.0547 54.9375C90.1016 57.5625 88.625 61.0078 88.625 65.2734H71.5391C71.5391 60.0234 72.9219 55.2422 75.6875 50.9297C78.5 46.6172 82.3906 43.2656 87.3594 40.875C92.375 38.4375 97.9766 37.2188 104.164 37.2188C114.383 37.2188 122.398 39.7969 128.211 44.9531C134.07 50.0625 137 57.1875 137 66.3281C137 70.9219 135.523 75.2578 132.57 79.3359C129.664 83.3672 125.891 86.4141 121.25 88.4766C126.875 90.3984 131.141 93.4219 134.047 97.5469C137 101.672 138.477 106.594 138.477 112.312C138.477 121.5 135.312 128.812 128.984 134.25C122.703 139.688 114.43 142.406 104.164 142.406C94.3203 142.406 86.2578 139.781 79.9766 134.531C73.6953 129.281 70.5547 122.297 70.5547 113.578H87.6406C87.6406 118.078 89.1406 121.734 92.1406 124.547C95.1875 127.359 99.2656 128.766 104.375 128.766C109.672 128.766 113.844 127.359 116.891 124.547C119.938 121.734 121.461 117.656 121.461 112.312C121.461 106.922 119.867 102.773 116.68 99.8672C113.492 96.9609 108.758 95.5078 102.477 95.5078H92.4219V82.0078Z" fill="white"/>
<path d="M51.2059 95.7217C50.6869 95.7217 50.1638 95.5878 49.6867 95.3241C48.6445 94.7549 48 93.65 48 92.4488V43.2719C48 42.0708 48.6445 40.9659 49.6867 40.3967C50.7079 39.8317 51.9132 39.8735 52.9009 40.5013L91.4933 65.0898C92.4392 65.6924 93 66.7262 93 67.8604C93 68.9946 92.4392 70.0284 91.4933 70.631L52.9009 95.2195C52.3778 95.5543 51.7919 95.7217 51.2059 95.7217ZM51.2101 42.1461C50.9841 42.1461 50.8083 42.2256 50.7162 42.2759C50.3563 42.4726 50.1429 42.8451 50.1429 43.2719V92.4488C50.1429 92.8757 50.3563 93.2482 50.7162 93.4449C50.8753 93.5328 51.2896 93.7002 51.75 93.4115L90.3424 68.823C90.8069 68.5259 90.8571 68.0529 90.8571 67.8604C90.8571 67.6679 90.8069 67.1949 90.3424 66.902L51.75 42.3093C51.5575 42.188 51.3691 42.1461 51.2101 42.1461Z" fill="white"/>
<path d="M55.5 55.2962V80.4288C55.5 82.1447 57.3373 83.1952 58.7561 82.2912L78.4855 69.727C79.829 68.8691 79.8331 66.8559 78.4855 65.998L58.7561 53.4296C57.3373 52.5256 55.5 53.5761 55.5 55.2962Z" fill="white"/>
</g>
<defs>
<clipPath id="clip0_2009_26">
<rect width="138" height="137" fill="white"/>
</clipPath>
</defs>
</svg>
